{
    "asset" : {
        "generator" : "Khronos glTF Blender I/O v3.3.32",
        "version" : "2.0"
    },
    "scene" : 0,
    "scenes" : [
        {
            "name" : "Scene",
            "nodes" : [
                0,
                1,
                2,
                3,
                4,
                5
            ]
        }
    ],
    "nodes" : [
        {
            "mesh" : 0,
            "name" : "cave",
            "rotation" : [
                0,
                -0.7071068286895752,
                0,
                0.7071068286895752
            ],
            "translation" : [
                0,
                0.9999999403953552,
                0
            ]
        },
        {
            "mesh" : 1,
            "name" : "doorFrame",
            "translation" : [
                0,
                -0.4371083378791809,
                0
            ]
        },
        {
            "mesh" : 2,
            "name" : "rocks",
            "rotation" : [
                0.765442967414856,
                0.6413796544075012,
                -0.052095431834459305,
                0.003920180723071098
            ],
            "scale" : [
                1.6636881828308105,
                0.44960489869117737,
                1.682310700416565
            ],
            "translation" : [
                -2.9758799076080322,
                0.5922162532806396,
                1.4171710014343262
            ]
        },
        {
            "mesh" : 3,
            "name" : "anvil",
            "scale" : [
                0.7353354096412659,
                0.7353354096412659,
                0.7353354096412659
            ],
            "translation" : [
                -1.8674994707107544,
                0.14612090587615967,
                1.3010849952697754
            ]
        },
        {
            "mesh" : 4,
            "name" : "quench",
            "scale" : [
                0.42161017656326294,
                0.42161017656326294,
                0.42161017656326294
            ],
            "translation" : [
                -0.40845656394958496,
                -0.17824400961399078,
                -0.11390713602304459
            ]
        },
        {
            "mesh" : 5,
            "name" : "furnace",
            "rotation" : [
                0,
                0.9933308959007263,
                0,
                0.11529836803674698
            ],
            "scale" : [
                0.13480789959430695,
                0.13480789959430695,
                0.13480789959430695
            ],
            "translation" : [
                -3.167714834213257,
                -0.051063209772109985,
                2.4937050342559814
            ]
        }
    ],
    "materials" : [
        {
            "doubleSided" : true,
            "name" : "Material",
            "pbrMetallicRoughness" : {
                "baseColorFactor" : [
                    0.800000011920929,
                    0.800000011920929,
                    0.800000011920929,
                    1
                ],
                "metallicFactor" : 0,
                "roughnessFactor" : 0.5
            }
        }
    ],
    "meshes" : [
        {
            "name" : "Cube",
            "primitives" : [
                {
                    "attributes" : {
                        "POSITION" : 0,
                        "NORMAL" : 1,
                        "TEXCOORD_0" : 2
                    },
                    "indices" : 3,
                    "material" : 0
                }
            ]
        },
        {
            "name" : "Cube.004",
            "primitives" : [
                {
                    "attributes" : {
                        "POSITION" : 4,
                        "NORMAL" : 5,
                        "TEXCOORD_0" : 6
                    },
                    "indices" : 7
                }
            ]
        },
        {
            "name" : "Cube.002",
            "primitives" : [
                {
                    "attributes" : {
                        "POSITION" : 8,
                        "NORMAL" : 9,
                        "TEXCOORD_0" : 10
                    },
                    "indices" : 11,
                    "material" : 0
                }
            ]
        },
        {
            "name" : "Cube.006",
            "primitives" : [
                {
                    "attributes" : {
                        "POSITION" : 12,
                        "NORMAL" : 13,
                        "TEXCOORD_0" : 14
                    },
                    "indices" : 15
                }
            ]
        },
        {
            "name" : "Cylinder.002",
            "primitives" : [
                {
                    "attributes" : {
                        "POSITION" : 16,
                        "NORMAL" : 17,
                        "TEXCOORD_0" : 18
                    },
                    "indices" : 19
                }
            ]
        },
        {
            "name" : "Cylinder.003",
            "primitives" : [
                {
                    "attributes" : {
                        "POSITION" : 20,
                        "NORMAL" : 21,
                        "TEXCOORD_0" : 22
                    },
                    "indices" : 23
                }
            ]
        }
    ],
    "accessors" : [
        {
            "bufferView" : 0,
            "componentType" : 5126,
            "count" : 156,
            "max" : [
                3.5179362297058105,
                3.034472942352295,
                4.206313610076904
            ],
            "min" : [
                -3.9533531665802,
                -1.0567139387130737,
                -3.308241367340088
            ],
            "type" : "VEC3"
        },
        {
            "bufferView" : 1,
            "componentType" : 5126,
            "count" : 156,
            "type" : "VEC3"
        },
        {
            "bufferView" : 2,
            "componentType" : 5126,
            "count" : 156,
            "type" : "VEC2"
        },
        {
            "bufferView" : 3,
            "componentType" : 5123,
            "count" : 240,
            "type" : "SCALAR"
        },
        {
            "bufferView" : 4,
            "componentType" : 5126,
            "count" : 72,
            "max" : [
                -3.623791456222534,
                2.641444206237793,
                -1.5816829204559326
            ],
            "min" : [
                -3.7564821243286133,
                1.5505619049072266,
                -2.3817479610443115
            ],
            "type" : "VEC3"
        },
        {
            "bufferView" : 5,
            "componentType" : 5126,
            "count" : 72,
            "type" : "VEC3"
        },
        {
            "bufferView" : 6,
            "componentType" : 5126,
            "count" : 72,
            "type" : "VEC2"
        },
        {
            "bufferView" : 7,
            "componentType" : 5123,
            "count" : 108,
            "type" : "SCALAR"
        },
        {
            "bufferView" : 8,
            "componentType" : 5126,
            "count" : 772,
            "max" : [
                2.3881025314331055,
                12.553520202636719,
                3.6701760292053223
            ],
            "min" : [
                -1.2743868827819824,
                -1.6354122161865234,
                -0.6752748489379883
            ],
            "type" : "VEC3"
        },
        {
            "bufferView" : 9,
            "componentType" : 5126,
            "count" : 772,
            "type" : "VEC3"
        },
        {
            "bufferView" : 10,
            "componentType" : 5126,
            "count" : 772,
            "type" : "VEC2"
        },
        {
            "bufferView" : 11,
            "componentType" : 5123,
            "count" : 1158,
            "type" : "SCALAR"
        },
        {
            "bufferView" : 12,
            "componentType" : 5126,
            "count" : 358,
            "max" : [
                0.4554038345813751,
                0.5351783037185669,
                0.2407684475183487
            ],
            "min" : [
                -0.4577488601207733,
                -0.02957857772707939,
                -0.2407684475183487
            ],
            "type" : "VEC3"
        },
        {
            "bufferView" : 13,
            "componentType" : 5126,
            "count" : 358,
            "type" : "VEC3"
        },
        {
            "bufferView" : 14,
            "componentType" : 5126,
            "count" : 358,
            "type" : "VEC2"
        },
        {
            "bufferView" : 15,
            "componentType" : 5123,
            "count" : 600,
            "type" : "SCALAR"
        },
        {
            "bufferView" : 16,
            "componentType" : 5126,
            "count" : 176,
            "max" : [
                -2.1237409114837646,
                1.5427255630493164,
                -0.24299848079681396
            ],
            "min" : [
                -3.308561325073242,
                -0.0098581463098526,
                -2.4969770908355713
            ],
            "type" : "VEC3"
        },
        {
            "bufferView" : 17,
            "componentType" : 5126,
            "count" : 176,
            "type" : "VEC3"
        },
        {
            "bufferView" : 18,
            "componentType" : 5126,
            "count" : 176,
            "type" : "VEC2"
        },
        {
            "bufferView" : 19,
            "componentType" : 5123,
            "count" : 276,
            "type" : "SCALAR"
        },
        {
            "bufferView" : 20,
            "componentType" : 5126,
            "count" : 656,
            "max" : [
                5.30889368057251,
                9.120919227600098,
                2.4033713340759277
            ],
            "min" : [
                -2.4790022373199463,
                0.005540430545806885,
                -2.6330513954162598
            ],
            "type" : "VEC3"
        },
        {
            "bufferView" : 21,
            "componentType" : 5126,
            "count" : 656,
            "type" : "VEC3"
        },
        {
            "bufferView" : 22,
            "componentType" : 5126,
            "count" : 656,
            "type" : "VEC2"
        },
        {
            "bufferView" : 23,
            "componentType" : 5123,
            "count" : 1044,
            "type" : "SCALAR"
        }
    ],
    "bufferViews" : [
        {
            "buffer" : 0,
            "byteLength" : 1872,
            "byteOffset" : 0,
            "target" : 34962
        },
        {
            "buffer" : 0,
            "byteLength" : 1872,
            "byteOffset" : 1872,
            "target" : 34962
        },
        {
            "buffer" : 0,
            "byteLength" : 1248,
            "byteOffset" : 3744,
            "target" : 34962
        },
        {
            "buffer" : 0,
            "byteLength" : 480,
            "byteOffset" : 4992,
            "target" : 34963
        },
        {
            "buffer" : 0,
            "byteLength" : 864,
            "byteOffset" : 5472,
            "target" : 34962
        },
        {
            "buffer" : 0,
            "byteLength" : 864,
            "byteOffset" : 6336,
            "target" : 34962
        },
        {
            "buffer" : 0,
            "byteLength" : 576,
            "byteOffset" : 7200,
            "target" : 34962
        },
        {
            "buffer" : 0,
            "byteLength" : 216,
            "byteOffset" : 7776,
            "target" : 34963
        },
        {
            "buffer" : 0,
            "byteLength" : 9264,
            "byteOffset" : 7992,
            "target" : 34962
        },
        {
            "buffer" : 0,
            "byteLength" : 9264,
            "byteOffset" : 17256,
            "target" : 34962
        },
        {
            "buffer" : 0,
            "byteLength" : 6176,
            "byteOffset" : 26520,
            "target" : 34962
        },
        {
            "buffer" : 0,
            "byteLength" : 2316,
            "byteOffset" : 32696,
            "target" : 34963
        },
        {
            "buffer" : 0,
            "byteLength" : 4296,
            "byteOffset" : 35012,
            "target" : 34962
        },
        {
            "buffer" : 0,
            "byteLength" : 4296,
            "byteOffset" : 39308,
            "target" : 34962
        },
        {
            "buffer" : 0,
            "byteLength" : 2864,
            "byteOffset" : 43604,
            "target" : 34962
        },
        {
            "buffer" : 0,
            "byteLength" : 1200,
            "byteOffset" : 46468,
            "target" : 34963
        },
        {
            "buffer" : 0,
            "byteLength" : 2112,
            "byteOffset" : 47668,
            "target" : 34962
        },
        {
            "buffer" : 0,
            "byteLength" : 2112,
            "byteOffset" : 49780,
            "target" : 34962
        },
        {
            "buffer" : 0,
            "byteLength" : 1408,
            "byteOffset" : 51892,
            "target" : 34962
        },
        {
            "buffer" : 0,
            "byteLength" : 552,
            "byteOffset" : 53300,
            "target" : 34963
        },
        {
            "buffer" : 0,
            "byteLength" : 7872,
            "byteOffset" : 53852,
            "target" : 34962
        },
        {
            "buffer" : 0,
            "byteLength" : 7872,
            "byteOffset" : 61724,
            "target" : 34962
        },
        {
            "buffer" : 0,
            "byteLength" : 5248,
            "byteOffset" : 69596,
            "target" : 34962
        },
        {
            "buffer" : 0,
            "byteLength" : 2088,
            "byteOffset" : 74844,
            "target" : 34963
        }
    ],
    "buffers" : [
        {
            "byteLength" : 76932,
            "uri" : "data:application/octet-stream;base64,"
        }
    ]
}
